<svg xmlns="http://www.w3.org/2000/svg" viewBox="0 0 141.73 141.73"><defs><style>.cls-1{isolation:isolate;}.cls-11,.cls-13,.cls-2,.cls-6,.cls-9{fill:#1a171b;}.cls-14,.cls-2,.cls-3,.cls-6{stroke:#1a171b;}.cls-14,.cls-2,.cls-3,.cls-4,.cls-5,.cls-6,.cls-7{stroke-linejoin:round;}.cls-2,.cls-3{stroke-width:2.28px;}.cls-11,.cls-13,.cls-14,.cls-2,.cls-3,.cls-4,.cls-6{fill-rule:evenodd;}.cls-3,.cls-8{fill:#009ee0;}.cls-12,.cls-4,.cls-5,.cls-7{fill:none;}.cls-4,.cls-7{stroke:#faf9f2;}.cls-4,.cls-5,.cls-6,.cls-7{stroke-linecap:round;}.cls-4,.cls-5{stroke-width:1.32px;}.cls-4,.cls-5,.cls-6{opacity:0.4;}.cls-5{stroke:#fff;}.cls-6{stroke-width:0.94px;}.cls-10,.cls-13,.cls-6{mix-blend-mode:multiply;}.cls-7{stroke-width:1.88px;opacity:0.3;}.cls-10{opacity:0.5;}.cls-12{stroke:#009ee0;stroke-miterlimit:10;stroke-width:0.8px;}.cls-13{opacity:0.12;}.cls-14{fill:#e8521e;stroke-width:2.03px;}</style></defs><title>Zeichenfläche 8</title><g class="cls-1"><g id="Ebene_1" data-name="Ebene 1"><path class="cls-2" d="M23.32,88V82.51h0c0-.44.32-.89,1-1.22l13.1-6.63a6.43,6.43,0,0,1,4.54-.37h1.43c2.89,0,5.08-1.29,5.08-3v-.67c-.51-.6.15-1.63,1.46-2.3l10.19-5.16a5.92,5.92,0,0,1,4.76,0L117.43,90c.67.34,1,.79,1,1.24h0v5.41h0c0,.46-.3.91-1,1.26l-10.14,5.14c-1.31.66-4.11,0-4.75,0,0,0,0,0-1.79,0-2.89,0-5.08,1.29-5.08,3v.87c0,1.27-.2,2-.88,2.5l-13.14,6.66a5.92,5.92,0,0,1-4.76,0L24.3,89.21c-.67-.34-1-.8-1-1.25Z"/><path class="cls-3" d="M23.32,82V51.26h0c0-.44.32-.89,1-1.22L37.4,43.4A8.2,8.2,0,0,1,41.94,43h1.43c2.89,0,5.08-1.29,5.08-3v-.67c0-1.25.15-1.63,1.46-2.3l10.19-5.16a5.92,5.92,0,0,1,4.76,0l52.58,26.86c.67.34,1,.79,1,1.24h0V90.72h0c0,.46-.3.91-1,1.26l-10.14,5.14c-1.31.66-3.28,0-4.75,0-1,0,0,0-1.79,0-2.89,0-5.08,1.29-5.08,3v.87c0,1.38-.07,1.94-.88,2.5L81.64,110.1a5.92,5.92,0,0,1-4.76,0L24.3,83.23c-.67-.34-1-.8-1-1.25Z"/><path class="cls-4" d="M93.79,72.16,81,78.62c.29-.15-.06,0-.44.05"/><line class="cls-5" x1="116.41" y1="60.71" x2="107.53" y2="65.2"/><path class="cls-6" d="M95.11,103.76l10.67-6v-31a21,21,0,0,1-3.81-.28s0,0-1.79,0c-2.89,0-5.08,1.29-5.08,3v34"/><line class="cls-7" x1="78.5" y1="81.24" x2="78.5" y2="107.88"/><path class="cls-8" d="M65.3,47.53c-5.34,0-9.21-2.48-9.21-5.9V29.94s0-.06,0-.1C56.2,26.43,60,24,65.3,24s9.21,2.48,9.21,5.9v11.7C74.51,45,70.64,47.53,65.3,47.53Z"/><path class="cls-9" d="M65.3,25.16c4.6,0,8.07,2,8.07,4.76v0h0V41.63h0c0,2.72-3.47,4.76-8.07,4.76s-8.07-2-8.07-4.76h0V29.94h0v0c0-2.72,3.47-4.76,8.07-4.76m0-2.28c-6,0-10.35,3-10.35,7v11.7c0,4.08,4.35,7,10.35,7s10.35-3,10.35-7V29.94h0c0-4.08-4.35-7-10.35-7Z"/><g class="cls-10"><path class="cls-9" d="M59.26,29.92c0-2,2.6-3.57,6-3.57s6,1.53,6,3.57-2.6,3.57-6,3.57S59.26,32,59.26,29.92Z"/></g><path class="cls-8" d="M79.91,55c-5.34,0-9.21-2.48-9.21-5.9V37.43s0-.06,0-.09c.1-3.41,3.94-5.83,9.21-5.83s9.21,2.48,9.21,5.9v11.7C89.12,52.53,85.24,55,79.91,55Z"/><path class="cls-9" d="M79.91,32.64c4.6,0,8.07,2,8.07,4.76v0h0V49.11h0c0,2.72-3.47,4.76-8.07,4.76s-8.07-2-8.07-4.76h0V37.43h0v0c0-2.72,3.47-4.76,8.07-4.76m0-2.28c-6,0-10.35,3-10.35,7v11.7c0,4.08,4.35,7,10.35,7s10.35-3,10.35-7V37.43h0c0-4.08-4.35-7-10.35-7Z"/><g class="cls-10"><path class="cls-9" d="M73.87,37.41c0-2,2.6-3.57,6-3.57s6,1.53,6,3.57-2.6,3.57-6,3.57S73.87,39.44,73.87,37.41Z"/></g><path class="cls-8" d="M94,62.14c-5.34,0-9.21-2.48-9.21-5.9V44.55s0-.06,0-.09c.1-3.41,3.94-5.83,9.21-5.83s9.21,2.48,9.21,5.9V56.23C103.23,59.65,99.36,62.14,94,62.14Z"/><path class="cls-9" d="M94,39.76c4.6,0,8.07,2,8.07,4.76v0h0V56.23h0c0,2.72-3.47,4.76-8.07,4.76S86,58.95,86,56.23h0V44.55h0v0c0-2.72,3.47-4.76,8.07-4.76m0-2.28c-6,0-10.35,3-10.35,7v11.7c0,4.08,4.35,7,10.35,7s10.35-3,10.35-7V44.55h0c0-4.08-4.35-7-10.35-7Z"/><g class="cls-10"><path class="cls-9" d="M88,44.53c0-2,2.6-3.57,6-3.57s6,1.53,6,3.57-2.6,3.57-6,3.57S88,46.56,88,44.53Z"/></g><path class="cls-8" d="M48.35,56.25c-5.34,0-9.21-2.48-9.21-5.9V38.65c0-3.44,3.87-5.92,9.21-5.92s9.21,2.48,9.21,5.9c0,0,0,.07,0,.1v11.6C57.56,53.76,53.68,56.25,48.35,56.25Z"/><path class="cls-9" d="M48.35,33.87c4.6,0,8.07,2,8.07,4.76v0h0V50.34h0c0,2.72-3.47,4.76-8.07,4.76s-8.07-2-8.07-4.76h0V38.65h0v0c0-2.72,3.47-4.76,8.07-4.76m0-2.28c-6,0-10.35,3-10.35,7v11.7c0,4.08,4.35,7,10.35,7s10.35-3,10.35-7V38.65h0c0-4.08-4.35-7-10.35-7Z"/><g class="cls-10"><path class="cls-9" d="M42.31,38.64c0-2,2.6-3.57,6-3.57s6,1.53,6,3.57-2.6,3.57-6,3.57S42.31,40.67,42.31,38.64Z"/></g><path class="cls-8" d="M63,63.73c-5.34,0-9.21-2.48-9.21-5.9V46.14s0-.06,0-.1c.1-3.41,3.94-5.83,9.21-5.83s9.21,2.48,9.21,5.9v11.7C72.16,61.25,68.29,63.73,63,63.73Z"/><path class="cls-9" d="M63,41.36c4.6,0,8.07,2,8.07,4.76v0h0V57.83h0c0,2.72-3.47,4.76-8.07,4.76s-8.07-2-8.07-4.76h0V46.14h0v0c0-2.72,3.47-4.76,8.07-4.76m0-2.28c-6,0-10.35,3-10.35,7v11.7c0,4.08,4.35,7,10.35,7s10.35-3,10.35-7V46.14h0c0-4.08-4.35-7-10.35-7Z"/><g class="cls-10"><path class="cls-9" d="M56.91,46.12c0-2,2.6-3.57,6-3.57s6,1.53,6,3.57-2.6,3.57-6,3.57S56.91,48.15,56.91,46.12Z"/></g><path class="cls-8" d="M77.06,70.85c-5.34,0-9.21-2.48-9.21-5.9V53.26s0-.06,0-.09c.1-3.41,3.94-5.83,9.21-5.83s9.21,2.48,9.21,5.9v11.7C86.27,68.37,82.4,70.85,77.06,70.85Z"/><path class="cls-9" d="M77.07,48.48c4.6,0,8.07,2,8.07,4.76v0h0V64.95h0c0,2.72-3.47,4.76-8.07,4.76S69,67.66,69,64.95h0V53.26h0v0c0-2.72,3.47-4.76,8.07-4.76m0-2.28c-6,0-10.35,3-10.35,7v11.7c0,4.08,4.35,7,10.35,7s10.35-3,10.35-7V53.26h0c0-4.08-4.35-7-10.35-7Z"/><g class="cls-10"><path class="cls-9" d="M71,53.24c0-2,2.6-3.57,6-3.57s6,1.53,6,3.57-2.6,3.57-6,3.57S71,55.27,71,53.24Z"/></g><path class="cls-11" d="M67.92,84.4a7.46,7.46,0,0,0-3.57-6.11c-2-1-3.57.11-3.57,2.47v2.87a7.46,7.46,0,0,0,3.57,6.11c2,1,3.57-.11,3.57-2.47Z"/><path class="cls-12" d="M70,82.86a7.46,7.46,0,0,0-3.57-6.11c-2-1-3.57.11-3.57,2.47v2.87a7.46,7.46,0,0,0,3.57,6.11c2,1,3.57-.11,3.57-2.47Z"/><path class="cls-11" d="M40,69.55a7.46,7.46,0,0,0-3.57-6.11c-2-1-3.57.11-3.57,2.47v2.87a7.46,7.46,0,0,0,3.57,6.11c2,1,3.57-.11,3.57-2.47Z"/><path class="cls-12" d="M42.09,68.71a7.46,7.46,0,0,0-3.57-6.11c-2-1-3.57.11-3.57,2.47v2.87a7.46,7.46,0,0,0,3.57,6.11c2,1,3.57-.11,3.57-2.47Z"/><path class="cls-13" d="M23.32,51.3h0c0,.45.3.91,1,1.25l50.84,26a3.2,3.2,0,0,1,1.75,2.85V111L23.32,84.19Z"/><path class="cls-14" d="M53.21,85.93a9.46,9.46,0,0,0-4.86-6.85c-2.53-1.28-4.62-.41-4.86,1.93Z"/><line class="cls-7" x1="78.5" y1="111.34" x2="78.5" y2="115.97"/></g></g></svg>